<?xml version="1.0" encoding="utf-8"?>
<!-- Generator: Adobe Illustrator 23.1.1, SVG Export Plug-In . SVG Version: 6.00 Build 0)  -->
<svg version="1.1" id="Layer_1" xmlns="http://www.w3.org/2000/svg" xmlns:xlink="http://www.w3.org/1999/xlink" x="0px" y="0px"
	 viewBox="0 0 556 184.2" style="enable-background:new 0 0 556 184.2;" xml:space="preserve">
<g>
	<path d="M110.3,116.3c1.1-27.9,11.7-50.7,36.1-66.2c19-12,48.3-11.2,65.3,3.5c13.9,12,18.8,27.9,15.9,46c-0.7,4.4-1.9,8.8-2.9,13.2
		c-4.6,21.4-17.3,39.5-34.9,52.1c-25,17.8-69.6,6.8-77.9-31.1C110.8,128.9,110.3,121.3,110.3,116.3z M128.1,115.8
		c0.2,4.2,0.4,11.2,1.5,15.4c5.6,22.2,31.4,32.1,50.6,19.4c14.7-9.7,24.8-25.3,28.1-42.8c0.7-3.8,1.7-7.6,2.3-11.4
		c4-21.1-10-37.3-30.4-39.4c-9.7,0.2-18.8,2.1-26.9,8.1C136.1,77.8,129.2,95.3,128.1,115.8z"/>
	<path d="M53.1,58.7c-3.7,16.8-4.4,20.8-9.5,38.3c1.9,2.1,22.3,0.3,30.6,0c2.1-0.1,4.3,0,6.3,0.4c4.1,0.8,6.6,3.8,6.6,7.5
		c0.1,3.8-2.2,6.6-6.3,7.8c-2.3,0.7-4.6,0.5-7,0.5c-11.3,0-22.5,0-33.8,0.4c-1.7,1.5-1.7,3.3-2.2,4.9c-4.2,14.8-8.3,29.5-11.9,44.4
		c-0.4,1.9-1,3.7-1.9,5.4c-2,3.6-5.5,5.1-9.1,4.3c-3.6-0.8-6-3.8-6.2-7.9c-0.2-3.2,0.5-6.4,1.2-9.5c3.5-14.9,7.3-29.8,11.4-44.5
		c5.8-20.3,13.6-59.3,16.2-65c2.2-5,11.5-3.8,13.6-3.9c20-0.9,32,0.9,52,0c1.9-0.1,3.9-0.1,5.7,0.2c4.7,0.7,7.7,3.9,7.7,8
		c0,4.1-2.8,7.3-7.5,8.2c-2.3,0.4-4.7,0.5-7,0.5c-17.2,0.3-26.7-0.7-43.9-0.4C56.8,58.4,55.3,58.5,53.1,58.7z"/>
	<g>
		<path d="M356.8,43.7c-5.6-4.5-8.8-0.2-14.3,2.6c-1,0.5-12.8,9.7-17.4,13.3c-15.8,12.5-33.4,27-49.6,38.8c-2,1.4-3.7,3.3-6.4,3.8
			c-1-2-0.1-3.3,0.3-4.6c4.1-14.5,8.2-29,12.4-43.4c1.6-5.7-1-11.5-6.2-13.8c-4.4-1.9-8.5,0.2-10.9,5.9c-0.7,1.7-1.2,3.5-1.8,5.3
			c-1.8,6.1-3.4,12.2-5.3,18.3c-2.8,9.2-14.9,59.1-19.7,74.3c-1.3,4.2-2.4,8.6-3.6,12.9c-0.5,1.8-0.9,3.7-1.1,5.6
			c-0.4,5.4,1.9,9.3,6,10.3c3.9,1,7.4-1,9.4-5.6c0.7-1.5,1.1-3.1,1.5-4.7c3-10.2,5.9-20.3,8.9-30.5c0.7-2.2,0.9-4.9,3.1-6
			c7.7-3.7,14.7-8.6,21.9-13.2c0.7,1.1,1.2,1.6,1.5,2.3c6.4,17.7,12.3,31.5,19.9,48.5c1,2.3,2.1,4.7,3.6,6.8
			c2.5,3.7,6.4,4.8,9.7,3.1s4.9-5.6,3.9-10.2c-0.5-2.3-1.4-4.5-2.4-6.6c-5-10.5-7.5-18.3-12.3-28.9c-3.6-8-7.5-15.9-10.1-23.8
			c1-2.2,2.2-2.8,3.3-3.5c16.2-10.9,36.6-29.2,50.5-42.8C356.2,53.7,360.5,46.7,356.8,43.7z"/>
		<path d="M467.8,41.4c-3.1-0.9-6.3,0.4-8.5,3.6c-1.6,2.3-2.3,5.1-3.2,7.7c-2.6,7.5-17.2,60.3-23.9,72.8
			c-6.2,11.6-13.6,25.3-25.9,29.1c-4.4,1.4-8.2,1.8-12.8,0.1l-6.5-3.5c-7.4-5.4-11.6-14.2-11.4-24.8c0.2-11.4,11.8-57.6,15.4-69.4
			c0.6-2,1.3-4.1,1.5-6.2c0.3-3.6-1.1-6.5-4.2-8.1c-3.1-1.6-5.9-0.7-8.3,1.9c-1.6,1.7-2.5,3.8-3.2,6.1
			c-4.4,12.9-18.2,63.6-18.8,77.5c0.2,2.1,0.3,5.2,0.7,8.2c2.1,14.2,10.3,23.5,20.6,31.2c10.4,7.8,24.9,6.5,34.7,3.6
			c4-1.2,11.6-7.5,14.6-10.6c10.9-11.4,14.5-16.6,20.6-30.5c8.9-20.3,16.4-51.9,23.1-73.2c0.7-2.2,1.4-4.5,1.2-6.9
			C473.4,45.7,471.1,42.3,467.8,41.4z"/>
		<path d="M543.3,165c-0.4-3.1-2.2-5-5.1-6c-3-1-6.2-1.3-9.5-1.4c-8.3-0.3-24.6-0.6-32.9-0.9c-1.7-0.1-3.5,0.2-5.6-0.6
			c0,0,22.2-84.2,26.8-97.9c1.3-3.8,2.8-7.7,2.5-11.8c-0.2-2.8-3.5-4.5-6.2-5.5c-2.6-0.9-5-0.3-7.1,1.7c-1.6,1.5-2.5,3.5-3.3,5.4
			c-12.9,30.9-32,108.7-32.2,110.2c-0.6,6.2,1.8,10.2,7.6,12.5c3.4,1.4,7,2.1,10.6,2.2c11.7,0.5,31.4,0.8,43.1,1.2
			c2.6,0.1,5.1-0.2,7.4-1.6C542.3,170.8,543.7,168.3,543.3,165z"/>
	</g>
</g>
</svg>
