<?xml version="1.0" encoding="utf-8"?>
<!-- Generator: Adobe Illustrator 23.1.1, SVG Export Plug-In . SVG Version: 6.00 Build 0)  -->
<svg version="1.1" id="Layer_1" xmlns="http://www.w3.org/2000/svg" xmlns:xlink="http://www.w3.org/1999/xlink" x="0px" y="0px"
	 viewBox="0 0 556 184.2" style="enable-background:new 0 0 556 184.2;" xml:space="preserve">
<g>
	<path d="M96,96.1c0.9-24,10.1-43.6,31-56.9c16.3-10.3,41.5-9.6,56.1,3c11.9,10.3,16.2,24,13.7,39.5c-0.6,3.8-1.6,7.6-2.5,11.3
		c-4,18.4-14.9,33.9-30,44.8c-21.5,15.3-59.8,5.8-66.9-26.7C96.4,106.9,96,100.4,96,96.1z M111.3,95.6c0.2,3.6,0.3,9.6,1.3,13.2
		c4.8,19.1,27,27.6,43.5,16.7c12.6-8.3,21.3-21.7,24.1-36.8c0.6-3.3,1.5-6.5,2-9.8c3.4-18.1-8.6-32.1-26.1-33.9
		c-8.3,0.2-16.2,1.8-23.1,7C118.2,63,112.2,78,111.3,95.6z"/>
	<path d="M46.8,46.6c-3.2,14.4-3.8,17.9-8.2,32.9c1.6,1.8,19.2,0.3,26.3,0c1.8-0.1,3.7,0,5.4,0.3c3.5,0.7,5.7,3.3,5.7,6.4
		c0.1,3.3-1.9,5.7-5.4,6.7c-2,0.6-4,0.4-6,0.4c-9.7,0-19.3,0-29,0.3c-1.5,1.3-1.5,2.8-1.9,4.2c-3.6,12.7-7.1,25.3-10.2,38.2
		c-0.3,1.6-0.9,3.2-1.6,4.6c-1.7,3.1-4.7,4.4-7.8,3.7c-3.1-0.7-5.2-3.3-5.3-6.8c-0.2-2.7,0.4-5.5,1-8.2c3-12.8,6.3-25.6,9.8-38.2
		c5-17.4,11.7-51,13.9-55.9c1.9-4.3,9.9-3.3,11.7-3.4c17.2-0.8,27.5,0.8,44.7,0c1.6-0.1,3.4-0.1,4.9,0.2c4,0.6,6.6,3.4,6.6,6.9
		s-2.4,6.3-6.4,7c-2,0.3-4,0.4-6,0.4c-14.8,0.3-22.9-0.6-37.7-0.3C50,46.3,48.7,46.4,46.8,46.6z"/>
	<g>
		<path d="M387.4,33.7c-4.8-3.9-7.6-0.2-12.3,2.2c-0.9,0.4-11,8.3-15,11.4c-13.6,10.7-28.7,23.2-42.6,33.3c-1.7,1.2-3.2,2.8-5.5,3.3
			c-0.9-1.7-0.1-2.8,0.3-4c3.5-12.5,7-24.9,10.7-37.3c1.4-4.9-0.9-9.9-5.3-11.9c-3.8-1.6-7.3,0.2-9.4,5.1c-0.6,1.5-1,3-1.5,4.6
			c-1.5,5.2-2.9,10.5-4.6,15.7c-2.4,7.9-12.8,50.8-16.9,63.8c-1.1,3.6-2.1,7.4-3.1,11.1c-0.4,1.5-0.8,3.2-0.9,4.8
			c-0.3,4.6,1.6,8,5.2,8.9c3.4,0.9,6.4-0.9,8.1-4.8c0.6-1.3,0.9-2.7,1.3-4c2.6-8.8,5.1-17.4,7.6-26.2c0.6-1.9,0.8-4.2,2.7-5.2
			c6.6-3.2,12.6-7.4,18.8-11.3c0.6,0.9,1,1.4,1.3,2c5.5,15.2,10.6,27.1,17.1,41.7c0.9,2,1.8,4,3.1,5.8c2.1,3.2,5.5,4.1,8.3,2.7
			s4.2-4.8,3.4-8.8c-0.4-2-1.2-3.9-2.1-5.7c-4.3-9-6.4-15.7-10.6-24.8c-3.1-6.9-6.4-13.7-8.7-20.5c0.9-1.9,1.9-2.4,2.8-3
			c13.9-9.4,31.4-25.1,43.4-36.8C386.9,42.3,390.6,36.3,387.4,33.7z"/>
		<path d="M482.8,31.7c-2.7-0.8-5.4,0.3-7.3,3.1c-1.4,2-2,4.4-2.7,6.6c-2.2,6.4-14.8,51.8-20.5,62.6c-5.3,10-11.7,21.7-22.3,25
			c-3.8,1.2-7,1.5-11,0.1l-5.6-3c-6.4-4.6-10-12.2-9.8-21.3c0.2-9.8,10.1-49.5,13.2-59.6c0.5-1.7,1.1-3.5,1.3-5.3
			c0.3-3.1-0.9-5.6-3.6-7c-2.7-1.4-5.1-0.6-7.1,1.6c-1.4,1.5-2.1,3.3-2.7,5.2c-3.8,11.1-15.6,54.7-16.2,66.6c0.2,1.8,0.3,4.5,0.6,7
			c1.8,12.2,8.9,20.2,17.7,26.8c8.9,6.7,21.4,5.6,29.8,3.1c3.4-1,10-6.4,12.5-9.1c9.4-9.8,12.5-14.3,17.7-26.2
			c7.6-17.4,14.1-44.6,19.8-62.9c0.6-1.9,1.2-3.9,1-5.9C487.6,35.4,485.6,32.5,482.8,31.7z"/>
		<path d="M547.6,137.9c-0.3-2.7-1.9-4.3-4.4-5.2c-2.6-0.9-5.3-1.1-8.2-1.2c-7.1-0.3-21.1-0.5-28.3-0.8c-1.5-0.1-3,0.2-4.8-0.5
			c0,0,19.1-72.4,23-84.1c1.1-3.3,2.4-6.6,2.1-10.1c-0.2-2.4-3-3.9-5.3-4.7c-2.2-0.8-4.3-0.3-6.1,1.5c-1.4,1.3-2.1,3-2.8,4.6
			c-11.1,26.6-27.5,93.4-27.7,94.7c-0.5,5.3,1.5,8.8,6.5,10.7c2.9,1.2,6,1.8,9.1,1.9c10.1,0.4,27,0.7,37,1c2.2,0.1,4.4-0.2,6.4-1.4
			C546.8,142.9,548,140.8,547.6,137.9z"/>
		<path d="M268.8,137.9c-0.3-2.7-1.9-4.3-4.4-5.2c-2.6-0.9-5.3-1.1-8.2-1.2c-7.1-0.3-21.1-0.5-28.3-0.8c-1.5-0.1-3,0.2-4.8-0.5
			c0,0,19.1-72.4,23-84.1c1.1-3.3,2.4-6.6,2.1-10.1c-0.2-2.4-3-3.9-5.3-4.7c-2.2-0.8-4.3-0.3-6.1,1.5c-1.4,1.3-2.1,3-2.8,4.6
			c-11.1,26.6-27.5,93.4-27.7,94.7c-0.5,5.3,1.5,8.8,6.5,10.7c2.9,1.2,6,1.8,9.1,1.9c10.1,0.4,27,0.7,37,1c2.2,0.1,4.4-0.2,6.4-1.4
			C267.9,142.9,269.1,140.8,268.8,137.9z"/>
	</g>
</g>
</svg>
